<mxfile host="app.diagrams.net" modified="2020-11-19T08:27:53.652Z" agent="5.0 (Macintosh; Intel Mac OS X 11_0_0) AppleWebKit/537.36 (KHTML, like Gecko) Chrome/86.0.4240.193 Safari/537.36" etag="_qo31zHbPGNJlQCnv0dy" version="13.10.0" type="github">
  <diagram id="C5RBs43oDa-KdzZeNtuy" name="Page-1">
    <mxGraphModel dx="914" dy="2073" grid="0" gridSize="10" guides="1" tooltips="1" connect="1" arrows="1" fold="1" page="1" pageScale="1" pageWidth="827" pageHeight="1169" math="0" shadow="0">
      <root>
        <mxCell id="WIyWlLk6GJQsqaUBKTNV-0" />
        <mxCell id="WIyWlLk6GJQsqaUBKTNV-1" parent="WIyWlLk6GJQsqaUBKTNV-0" />
        <mxCell id="mn8l_5YuTYm0D2LlZyeU-2" style="edgeStyle=orthogonalEdgeStyle;rounded=0;orthogonalLoop=1;jettySize=auto;html=1;entryX=0.5;entryY=0;entryDx=0;entryDy=0;" edge="1" parent="WIyWlLk6GJQsqaUBKTNV-1" source="WIyWlLk6GJQsqaUBKTNV-3" target="mn8l_5YuTYm0D2LlZyeU-0">
          <mxGeometry relative="1" as="geometry" />
        </mxCell>
        <mxCell id="WIyWlLk6GJQsqaUBKTNV-3" value="SDK初始化&lt;br&gt;ABTest.init(&quot;AppKey&quot;)" style="rounded=1;whiteSpace=wrap;html=1;fontSize=12;glass=0;strokeWidth=1;shadow=0;" parent="WIyWlLk6GJQsqaUBKTNV-1" vertex="1">
          <mxGeometry x="189" y="30" width="175" height="60" as="geometry" />
        </mxCell>
        <mxCell id="mn8l_5YuTYm0D2LlZyeU-5" style="edgeStyle=orthogonalEdgeStyle;rounded=0;orthogonalLoop=1;jettySize=auto;html=1;entryX=0.5;entryY=0;entryDx=0;entryDy=0;" edge="1" parent="WIyWlLk6GJQsqaUBKTNV-1" source="WIyWlLk6GJQsqaUBKTNV-7" target="mn8l_5YuTYm0D2LlZyeU-4">
          <mxGeometry relative="1" as="geometry" />
        </mxCell>
        <mxCell id="WIyWlLk6GJQsqaUBKTNV-7" value="打开某个页面" style="rounded=1;whiteSpace=wrap;html=1;fontSize=12;glass=0;strokeWidth=1;shadow=0;" parent="WIyWlLk6GJQsqaUBKTNV-1" vertex="1">
          <mxGeometry x="490" y="30" width="160" height="40" as="geometry" />
        </mxCell>
        <mxCell id="mn8l_5YuTYm0D2LlZyeU-6" style="edgeStyle=orthogonalEdgeStyle;rounded=0;orthogonalLoop=1;jettySize=auto;html=1;entryX=0;entryY=0.5;entryDx=0;entryDy=0;" edge="1" parent="WIyWlLk6GJQsqaUBKTNV-1" source="mn8l_5YuTYm0D2LlZyeU-0" target="mn8l_5YuTYm0D2LlZyeU-4">
          <mxGeometry relative="1" as="geometry" />
        </mxCell>
        <mxCell id="mn8l_5YuTYm0D2LlZyeU-0" value="后台服务获取测试配置数据&lt;br&gt;configuration data&amp;nbsp;" style="rounded=1;whiteSpace=wrap;html=1;" vertex="1" parent="WIyWlLk6GJQsqaUBKTNV-1">
          <mxGeometry x="187" y="140" width="180" height="60" as="geometry" />
        </mxCell>
        <mxCell id="mn8l_5YuTYm0D2LlZyeU-8" value="Yes" style="edgeStyle=orthogonalEdgeStyle;rounded=0;orthogonalLoop=1;jettySize=auto;html=1;entryX=0.5;entryY=0;entryDx=0;entryDy=0;" edge="1" parent="WIyWlLk6GJQsqaUBKTNV-1" source="mn8l_5YuTYm0D2LlZyeU-4" target="mn8l_5YuTYm0D2LlZyeU-7">
          <mxGeometry relative="1" as="geometry" />
        </mxCell>
        <mxCell id="mn8l_5YuTYm0D2LlZyeU-4" value="根据实验对象id检测是否有ABTest" style="rhombus;whiteSpace=wrap;html=1;" vertex="1" parent="WIyWlLk6GJQsqaUBKTNV-1">
          <mxGeometry x="482.5" y="110" width="175" height="120" as="geometry" />
        </mxCell>
        <mxCell id="mn8l_5YuTYm0D2LlZyeU-11" style="edgeStyle=orthogonalEdgeStyle;rounded=0;orthogonalLoop=1;jettySize=auto;html=1;entryX=1;entryY=0.5;entryDx=0;entryDy=0;" edge="1" parent="WIyWlLk6GJQsqaUBKTNV-1" source="mn8l_5YuTYm0D2LlZyeU-7" target="mn8l_5YuTYm0D2LlZyeU-9">
          <mxGeometry relative="1" as="geometry" />
        </mxCell>
        <mxCell id="mn8l_5YuTYm0D2LlZyeU-7" value="获取实验对象的变量名称和对应的变量值，更改UI" style="rounded=1;whiteSpace=wrap;html=1;" vertex="1" parent="WIyWlLk6GJQsqaUBKTNV-1">
          <mxGeometry x="485" y="290" width="170" height="80" as="geometry" />
        </mxCell>
        <mxCell id="mn8l_5YuTYm0D2LlZyeU-9" value="采集实验数据，上报" style="rounded=1;whiteSpace=wrap;html=1;" vertex="1" parent="WIyWlLk6GJQsqaUBKTNV-1">
          <mxGeometry x="189" y="300" width="180" height="60" as="geometry" />
        </mxCell>
        <mxCell id="mn8l_5YuTYm0D2LlZyeU-12" value="" style="endArrow=none;dashed=1;html=1;dashPattern=1 3;strokeWidth=2;" edge="1" parent="WIyWlLk6GJQsqaUBKTNV-1">
          <mxGeometry width="50" height="50" relative="1" as="geometry">
            <mxPoint x="430" y="450" as="sourcePoint" />
            <mxPoint x="430" as="targetPoint" />
          </mxGeometry>
        </mxCell>
        <mxCell id="mn8l_5YuTYm0D2LlZyeU-14" style="edgeStyle=orthogonalEdgeStyle;rounded=0;orthogonalLoop=1;jettySize=auto;html=1;exitX=0;exitY=0.25;exitDx=0;exitDy=0;entryX=0.5;entryY=1;entryDx=0;entryDy=0;" edge="1" parent="WIyWlLk6GJQsqaUBKTNV-1" source="mn8l_5YuTYm0D2LlZyeU-0" target="mn8l_5YuTYm0D2LlZyeU-0">
          <mxGeometry relative="1" as="geometry" />
        </mxCell>
        <mxCell id="mn8l_5YuTYm0D2LlZyeU-15" value="1个小时自动刷新" style="edgeLabel;html=1;align=center;verticalAlign=middle;resizable=0;points=[];" vertex="1" connectable="0" parent="mn8l_5YuTYm0D2LlZyeU-14">
          <mxGeometry x="-0.0884" y="-3" relative="1" as="geometry">
            <mxPoint as="offset" />
          </mxGeometry>
        </mxCell>
      </root>
    </mxGraphModel>
  </diagram>
</mxfile>
